<?xml version="1.0" encoding="UTF-8"?>
<!DOCTYPE svg PUBLIC "-//W3C//DTD SVG 1.1//EN" "http://www.w3.org/Graphics/SVG/1.1/DTD/svg11.dtd">
<!-- Creator: CorelDRAW 2020 (64 Bit) -->
<svg xmlns="http://www.w3.org/2000/svg" xml:space="preserve" width="134.938mm" height="134.938mm" version="1.1" style="shape-rendering:geometricPrecision; text-rendering:geometricPrecision; image-rendering:optimizeQuality; fill-rule:evenodd; clip-rule:evenodd"
viewBox="0 0 2898.83 2898.83"
 xmlns:xlink="http://www.w3.org/1999/xlink"
 xmlns:xodm="http://www.corel.com/coreldraw/odm/2003">
 <defs>
  <style type="text/css">
   <![CDATA[
    .str0 {stroke:darkred;stroke-width:90.94;stroke-miterlimit:22.9256}
    .fil1 {fill:none}
    .fil0 {fill:darkred}
   ]]>
  </style>
 </defs>
 <g id="Camada_x0020_1">
  <metadata id="CorelCorpID_0Corel-Layer"/>
  <g id="_2406601128464">
   <g>
    <path class="fil0" d="M289.88 484.55l2319.06 0 0 2125.8 -2319.06 0 0 -2125.8zm-102.31 -5.68l0 2148.54c0,43.71 48.91,85.26 96.63,85.26l2330.43 0c53.91,0 96.63,-42.72 96.63,-96.63l0 -2137.17c0,-51.95 -44.68,-96.63 -96.63,-96.63l-2330.43 0c-51.95,0 -96.63,44.68 -96.63,96.63z"/>
    <path class="fil0" d="M1017.43 1899.85l0 -500.19c0,-33.88 22.94,-45.47 56.84,-45.47l750.28 0c33.9,0 56.84,11.59 56.84,45.47l0 500.19c0,18.42 -24.7,34.1 -45.47,34.1l-773.02 0c-20.77,0 -45.47,-15.69 -45.47,-34.1zm-102.31 -500.19l0 500.19c0,74.66 71.46,136.42 164.83,136.42l738.92 0c93.14,0 164.83,-61.24 164.83,-136.42l0 -500.19c0,-80.2 -67.24,-142.1 -130.73,-142.1l-807.12 0c-63.49,0 -130.73,61.9 -130.73,142.1z"/>
    <path class="fil0" d="M483.14 1024.52l0 -312.62c0,-13.69 20.42,-34.1 34.1,-34.1l409.24 0c13.69,0 34.1,20.42 34.1,34.1l0 312.62c0,13.68 -20.42,34.1 -34.1,34.1l-409.24 0c-13.69,0 -34.1,-20.42 -34.1,-34.1zm-102.31 -301.25l0 289.88c0,74.94 64.44,147.78 136.42,147.78l409.24 0c71.97,0 136.42,-72.84 136.42,-147.78l0 -289.88c0,-46.43 -16.92,-76.66 -41.01,-101.08 -25.47,-25.81 -60.87,-46.7 -101.08,-46.7l-397.88 0c-40.51,0 -76.59,22.19 -98.24,43.86 -25.53,25.55 -43.86,55.28 -43.86,103.92z"/>
    <path class="fil0" d="M1938.23 1024.52l0 -312.62c0,-13.69 20.42,-34.1 34.1,-34.1l409.24 0c13.69,0 34.1,20.42 34.1,34.1l0 312.62c0,13.68 -20.42,34.1 -34.1,34.1l-409.24 0c-13.69,0 -34.1,-20.42 -34.1,-34.1zm-102.31 -301.25l0 289.88c0,74.94 64.44,147.78 136.42,147.78l409.24 0c71.97,0 136.42,-72.84 136.42,-147.78l0 -289.88c0,-84.36 -71.79,-147.78 -142.1,-147.78l-397.88 0c-69.38,0 -142.1,63.48 -142.1,147.78z"/>
    <path class="fil0" d="M1256.16 1001.78l0 -267.15c0,-33.9 11.59,-56.84 45.47,-56.84l295.57 0c29.33,0 45.47,23.67 45.47,51.15l0 272.83c0,33.9 -11.59,56.84 -45.47,56.84l-295.57 0c-33.88,0 -45.47,-22.94 -45.47,-56.84zm-102.31 -233.04c0,102.03 -14.67,264.18 31.59,332.19 20.23,29.74 64.21,60.01 110.51,60.01l306.93 0c100.89,0 142.1,-92.23 142.1,-193.26 0,-106.13 15.37,-266.64 -33.85,-335.61 -20.31,-28.47 -70.32,-56.58 -119.62,-56.58l-284.2 0c-112.64,0 -153.47,87.4 -153.47,193.25z"/>
    <path class="fil0" d="M1887.08 2377.31c0,-27.49 16.14,-51.16 45.47,-51.16l437.67 0c66.9,0 52.27,90.94 11.37,90.94l-449.03 0c-24.32,0 -45.47,-17.52 -45.47,-39.79zm39.79 142.1l443.35 0c194.25,0 197.89,-295.57 -5.68,-295.57l-414.93 0c-223.53,0 -197.35,295.57 -22.74,295.57z"/>
    <path class="fil0" d="M380.83 1354.19c0,34.89 27.05,51.15 62.52,51.15l323.99 0c67.08,0 71.07,-102.31 0,-102.31l-335.35 0c-28.09,0 -51.15,23.06 -51.15,51.16z"/>
    <path class="fil0" d="M2080.33 1342.82c0,30.31 7.9,62.52 51.16,62.52l323.99 0c89.91,0 73.45,-102.31 11.37,-102.31l-335.35 0c-23.44,0 -51.16,19.11 -51.16,39.79z"/>
    <path class="fil0" d="M380.83 1547.45c0,28.1 23.06,51.16 51.15,51.16l335.35 0c68.7,0 68.7,-102.31 0,-102.31l-323.99 0c-35.47,0 -62.52,16.26 -62.52,51.15z"/>
    <path class="fil0" d="M2080.33 1729.33c0,30.56 3.93,62.52 51.16,62.52l335.35 0c66.97,0 69.69,-102.31 -5.68,-102.31l-318.3 0c-27.35,0 -62.53,15.59 -62.53,39.79z"/>
    <path class="fil0" d="M2080.33 1536.08c0,30.31 7.9,62.53 51.16,62.53l335.35 0c62.09,0 78.54,-102.31 -11.37,-102.31l-323.99 0c-22.19,0 -51.16,21.69 -51.16,39.79z"/>
    <path class="fil0" d="M380.83 1740.7c0,28.1 23.06,51.16 51.15,51.16l335.35 0c68.6,0 73.55,-102.31 -11.37,-102.31l-318.3 0c-28.73,0 -56.84,20.51 -56.84,51.15z"/>
    <path class="fil0" d="M2080.33 1933.96c0,30.47 13.38,51.15 45.47,51.15l341.04 0c56.91,0 91.05,-102.31 -28.42,-102.31l-278.52 0c-41,0 -79.58,10.17 -79.58,51.16z"/>
    <path class="fil0" d="M380.83 1933.96c0,28.09 23.06,51.15 51.15,51.15l341.04 0c55.83,0 79.65,-102.31 -34.1,-102.31l-278.52 0c-41,0 -79.57,10.17 -79.57,51.16z"/>
    <path class="fil0" d="M2273.59 234.45c0,44.94 30.75,56.84 79.57,56.84l233.04 0c110.01,0 88.87,-102.31 28.42,-102.31l-301.25 0c-9.28,0 -39.79,12.96 -39.79,45.47z"/>
    <path class="fil0" d="M306.93 291.29c110.39,0 85.15,-102.31 28.42,-102.31l-51.16 0c-63.54,0 -75.71,102.31 22.74,102.31z"/>
    <path class="fil0" d="M721.86 234.45c0,81.61 147.78,70.94 147.78,5.68 0,-60.22 -66.77,-51.16 -102.31,-51.16 -27.49,0 -45.47,17.98 -45.47,45.47z"/>
    <path class="fil0" d="M477.45 234.45c0,79.06 147.78,74.09 147.78,5.68 0,-78.96 -147.78,-62.86 -147.78,-5.68z"/>
   </g>
   <path class="fil1 str0" d="M215.99 45.47l2466.85 0c93.79,0 170.52,76.73 170.52,170.52l0 2466.85c0,93.79 -76.73,170.52 -170.52,170.52l-2466.85 0c-93.79,0 -170.52,-76.73 -170.52,-170.52l0 -2466.85c0,-93.79 76.73,-170.52 170.52,-170.52z"/>
  </g>
 </g>
</svg>
